<svg xmlns="http://www.w3.org/2000/svg" width="55" height="97" viewBox="0 0 55 97" fill="none">
  <path d="M14.0107 96.8716C13.4704 97.0206 12.051 97.0399 11.964 96.8989C11.9296 96.8443 11.7591 96.7715 11.5851 96.7362C11.11 96.6407 9.89318 95.4475 9.58983 94.7799C9.20978 93.9416 9.21436 92.3891 9.59899 91.5952C9.75009 91.2824 9.87829 90.9946 9.88402 90.9559C9.88974 90.9173 10.1256 90.6921 10.4094 90.4543C10.8776 90.0642 11.5278 89.7287 13.7291 88.7437C15.2058 88.084 15.8468 87.7246 15.8468 87.5596C15.8468 87.4527 15.405 87.2059 14.6449 86.8897C12.9805 86.1948 12.9072 86.1629 11.5542 85.5282C10.8937 85.2189 10.0179 84.8276 9.60814 84.6604C9.19834 84.4943 8.55501 84.2145 8.17725 84.0394C7.7995 83.8654 6.82077 83.4286 6.0023 83.0703C5.18383 82.7109 4.41688 82.3663 4.29783 82.3037C4.17878 82.2411 3.84223 82.1194 3.54919 82.033C2.0851 81.6008 0.67596 80.0642 0.173431 78.3524C-0.0474979 77.5994 -0.0589451 76.214 0.148248 75.444C0.645052 73.6003 2.01527 72.1262 3.71173 71.611C4.10094 71.4927 7.69075 70.7954 12.6989 69.8639C14.5567 69.5193 16.2429 69.1621 16.4478 69.0723C16.75 68.9381 16.8233 68.838 16.837 68.5366C16.8473 68.3318 16.8633 68.1134 16.8736 68.0509C16.8839 67.9883 16.932 67.6562 16.9789 67.3116C17.0785 66.5848 17.5513 65.0675 17.8833 64.4112C18.0092 64.161 18.1076 63.9449 18.1008 63.9301C18.095 63.9153 18.2221 63.6082 18.3835 63.2476C18.5449 62.8871 18.8082 62.1045 18.9696 61.5108C19.2432 60.5008 19.2626 60.254 19.2718 57.7289L19.281 55.0288L21.37 55.0276H23.4591V53.4352H24.2696L24.2032 62.7051L23.8815 63.3307C23.2405 64.5818 22.4747 65.1107 22.4747 64.3043C22.4747 64.0404 22.5342 63.8982 22.6601 63.8652C22.762 63.8391 22.9967 63.5411 23.181 63.2044L23.5164 62.5913V59.2735C23.5164 57.4491 23.474 55.9148 23.4237 55.8647C23.3172 55.7578 20.8034 55.6953 20.3432 55.7863L20.0319 55.8488L20.0342 57.5708C20.0365 60.6305 19.7743 62.0306 18.8208 64.07C18.4911 64.7763 18.1431 65.6805 18.0138 66.1742C17.7116 67.3173 17.6246 67.8177 17.6234 68.4103C17.6211 69.0507 17.6509 69.136 17.9657 69.3987C18.5186 69.8616 21.0873 71.338 21.3094 71.3221C21.4216 71.313 21.5131 71.3562 21.5131 71.4176C21.5131 71.5677 22.5262 71.9897 22.9154 72.0011C23.0883 72.0056 23.2302 72.0511 23.2302 72.1023C23.2302 72.1535 23.3035 72.1672 23.3928 72.133C23.482 72.0989 23.6789 72.1524 23.8312 72.2513C23.9823 72.3503 24.1368 72.4003 24.1734 72.3639C24.2112 72.3275 24.3383 72.3503 24.4585 72.414C24.6485 72.5152 25.2083 72.6085 26.2065 72.7051C26.3644 72.7199 26.6048 72.7927 26.7433 72.8655C27.0169 73.0111 27.951 73.0475 28.0826 72.9167C28.1273 72.8723 28.3425 72.8291 28.5611 72.8212C28.7786 72.8132 29.0934 72.7359 29.2605 72.6471C29.4918 72.5254 29.5742 72.5198 29.6097 72.6244C29.6406 72.7154 29.7219 72.729 29.8489 72.6631C29.9542 72.6085 30.348 72.5015 30.7223 72.4265C31.0967 72.3514 31.4836 72.2479 31.5809 72.1979C31.859 72.0534 32.199 71.9363 32.4051 71.9135C32.7256 71.8794 34.4484 71.0366 34.4484 70.9149C34.4484 70.8512 34.4816 70.833 34.5228 70.8739C34.6029 70.9535 35.3676 70.5304 35.5027 70.3314C35.5484 70.2654 35.6286 70.212 35.6812 70.212C35.735 70.212 36.1002 70.0118 36.4928 69.7672C37.2609 69.2884 37.5288 68.9619 37.3239 68.7584C37.2518 68.6867 37.2426 68.5866 37.3021 68.5138C37.4223 68.3682 37.1407 66.6428 36.969 66.4722C36.9049 66.4085 36.8523 66.2663 36.8523 66.1548C36.8523 65.8455 36.5386 64.9992 36.0018 63.8573C35.5519 62.8984 35.2703 62.1261 35.1695 61.5722C35.1478 61.4505 35.0722 61.3152 35.0036 61.2731C34.9337 61.2299 34.9028 61.1514 34.9349 61.0968C34.9669 61.0433 34.9486 60.5383 34.8948 59.9753C34.841 59.4123 34.7987 58.226 34.7987 57.3388L34.8009 55.726H30.8998L30.8837 58.135C30.8505 63.0054 30.8952 63.3762 31.598 64.1701C32.0491 64.6796 32.0536 64.691 31.8613 64.9822L31.6656 65.2779L31.1596 64.7877C30.609 64.2542 30.3984 63.855 30.2713 63.1066C30.1786 62.5629 30.1237 49.3918 30.2129 49.3019C30.245 49.2712 30.411 49.2098 30.5827 49.1677L30.8963 49.0892L30.9261 52.0306L30.957 54.9707L33.2178 55.0015L35.4786 55.0322L35.4878 57.1057C35.4924 58.2465 35.5107 59.2553 35.5278 59.3497C35.545 59.4442 35.5919 59.8024 35.632 60.1482C35.7247 60.966 36.0933 62.3866 36.3726 63.0088C37.5517 65.6328 37.6753 65.9876 37.9386 67.4822C38.0382 68.0452 38.1412 68.6082 38.1675 68.7333C38.195 68.8584 38.361 69.0211 38.5361 69.095C38.883 69.2406 41.4036 69.7331 43.1482 69.9958C43.7457 70.0868 44.3639 70.2074 44.5218 70.2654C44.6798 70.3246 46.0958 70.6055 47.6698 70.8921C50.9208 71.4836 51.6751 71.6997 52.6138 72.3036C54.2324 73.3466 55.2581 75.6408 54.9433 77.5152C54.7796 78.4888 54.8002 78.4138 54.5037 79.0678C53.8341 80.5464 53.1633 81.1617 51.3352 81.9704C50.6415 82.2787 48.3475 83.3092 46.2389 84.2612C44.1303 85.2132 41.6589 86.3199 40.7477 86.7202C39.1096 87.4402 38.8097 87.6074 38.9345 87.7314C38.97 87.7655 40.1261 88.2773 41.5032 88.8665C43.9094 89.897 44.0319 89.9653 44.6523 90.6147C45.7845 91.7988 46.042 93.2956 45.3621 94.7264C44.8424 95.8183 44.1349 96.4701 43.099 96.8124C41.9039 97.206 41.0259 97.0206 38.6403 95.8695C37.2426 95.195 36.3955 94.8117 35.7076 94.5422C35.4248 94.4318 35.1673 94.3113 35.1352 94.276C35.0471 94.1759 33.5429 93.4719 33.4181 93.4719C33.3575 93.4719 33.1766 93.7278 33.0175 94.0406C32.8584 94.3534 32.7153 94.6081 32.7004 94.607C32.6065 94.6013 31.7572 94.2533 31.1218 93.961C30.7097 93.771 30.2461 93.5765 30.0916 93.531C29.9382 93.4844 29.6578 93.3536 29.4689 93.241C29.28 93.1284 28.7775 92.9248 28.3528 92.7894C27.9281 92.6529 27.5801 92.496 27.5801 92.438C27.5801 92.3811 27.4885 92.3345 27.3775 92.3345C27.1875 92.3345 24.4573 93.5322 22.9543 94.2749C22.5823 94.4591 22.2618 94.6093 22.2412 94.6093C22.1645 94.6093 21.7421 93.6993 21.7421 93.5333C21.7421 93.4366 21.7238 93.3581 21.7009 93.3581C21.6768 93.3581 20.9694 93.6846 20.1269 94.0838C15.9819 96.0481 14.4262 96.7567 14.0107 96.8716ZM31.495 34.4975C31.2672 34.8728 30.8425 35.5507 30.5518 36.0034L30.0218 36.8269L29.7745 36.5653C29.4735 36.2468 29.47 36.1967 29.7322 35.9181C29.9222 35.7145 30.2851 35.106 31.1447 33.5489C31.7949 32.3717 31.8144 32.1192 31.7858 25.3118C31.7709 21.8973 31.7205 19.0674 31.6759 19.0219C31.6301 18.9776 31.408 19.0811 31.1814 19.2528L30.7693 19.5645L30.7979 25.6667C30.8277 31.7552 30.8277 31.7688 30.5678 32.507C30.3125 33.2304 29.7837 34.1904 29.1758 35.0332L28.8702 35.4552L28.6241 35.1947L28.3768 34.9331L28.9629 34.0505C29.2892 33.5591 29.517 33.2566 29.6772 32.9233C30.047 32.1499 30.0504 31.2035 30.0676 27.3239C30.0687 26.8985 30.071 26.4378 30.0733 25.9385L30.1065 19.7681H29.0774L29.011 32.1089L28.6241 33.2179C28.4123 33.8275 28.2005 34.3269 28.1559 34.3269C28.1101 34.3269 27.9773 34.2211 27.8594 34.0926C27.6511 33.8628 27.6534 33.8389 27.9853 32.9267L28.3242 31.9952L28.3493 25.9101C28.3734 20.223 28.3619 19.809 28.1719 19.5838C27.9086 19.2722 27.5114 19.1425 27.4347 19.3438C27.4027 19.4269 27.3718 22.1942 27.366 25.4915C27.3546 32.0031 27.3134 32.4979 26.6895 33.6103C26.4457 34.0459 26.3965 34.0789 26.1355 33.9799C25.736 33.8298 25.6341 33.8435 25.6341 34.0505C25.6341 34.1483 25.5837 34.3223 25.5208 34.4383C25.4132 34.6385 25.3811 34.6396 24.8191 34.4611C24.1551 34.2495 24.0166 34.0846 23.5874 32.987L23.2874 32.2227L23.2565 25.9101C23.2256 19.6646 23.2233 19.5952 22.9864 19.3984C22.8547 19.2892 22.6498 19.1994 22.5308 19.1994C22.3213 19.1994 22.3144 19.4007 22.3156 25.6542C22.3167 30.6758 22.3511 32.2352 22.4701 32.6776C22.6132 33.2099 22.9406 33.9072 23.2542 34.3473C23.3618 34.4986 23.3573 34.6032 23.2325 34.8341C23.1455 34.9956 23.0242 35.1117 22.9635 35.0912C22.7368 35.0161 21.844 33.2736 21.7386 32.7026C21.678 32.3762 21.6162 29.0334 21.6001 25.2731C21.5772 19.9148 21.5383 18.3998 21.4239 18.2622C21.2132 18.0108 20.7141 17.9289 19.281 17.9084C18.2507 17.8948 17.9336 17.847 17.5364 17.6502C17.1358 17.4512 16.9137 17.4193 16.2543 17.466C14.7536 17.5729 13.5494 16.8848 13.1087 15.6689C12.8339 14.9102 12.9061 13.7842 13.2758 13.0358C13.5334 12.5137 13.5356 12.4898 13.3479 11.9132C13.2415 11.5845 13.1567 10.96 13.1567 10.4971C13.1567 9.76916 13.2071 9.57239 13.5688 8.87289C13.9088 8.21547 14.1183 7.97548 14.7708 7.49208C15.3271 7.0792 15.5618 6.83125 15.5629 6.65495C15.5709 5.88948 16.6046 4.6952 17.486 4.43246C18.0115 4.27664 18.0882 4.19247 18.3469 3.49524C18.8013 2.2714 19.7205 1.55369 20.9957 1.42744C21.4891 1.37853 21.6185 1.30801 21.9756 0.896274C22.2961 0.526618 22.548 0.37193 23.1054 0.199045C24.4127 -0.204734 25.5322 0.00568655 26.4514 0.831442L26.9173 1.25001L27.2779 0.914472C27.9498 0.287762 28.6676 0.0341211 29.7551 0.0363959C30.8826 0.0398081 31.4767 0.278663 32.0113 0.944045C32.2196 1.20337 32.4302 1.34327 32.6168 1.34669C32.9156 1.3501 34.0374 1.60374 34.3339 1.73454C34.6269 1.86307 35.3722 2.90834 35.5748 3.47477C35.8438 4.22659 35.8713 4.25617 36.423 4.39379C37.4372 4.64743 38.3793 5.80645 38.4468 6.88129C38.4514 6.95636 38.6998 7.18498 38.9986 7.38971C39.7759 7.92088 40.149 8.35082 40.5428 9.16975C40.8565 9.82262 40.8828 9.96707 40.8347 10.7621C40.8038 11.2796 40.7008 11.7915 40.5817 12.0178C40.3848 12.3943 40.3871 12.4136 40.6825 13.0676C41.2709 14.3711 41.177 15.6245 40.4261 16.4753C39.7575 17.2328 39.263 17.4319 37.997 17.4512C37.1453 17.4648 36.7882 17.524 36.3509 17.7208C35.8884 17.9289 35.6206 17.9676 34.8055 17.9425C33.3769 17.9005 33.0312 17.9289 32.7817 18.1097C32.5676 18.2656 32.5573 18.5078 32.5024 25.3038C32.4451 32.3193 32.444 32.3387 32.1773 33.0757C32.0307 33.4829 31.7228 34.1221 31.495 34.4975ZM31.0142 93.1352C31.5488 93.3786 32.0216 93.5799 32.0639 93.5822C32.3101 93.5936 32.5069 93.4014 32.626 93.0351C32.6993 92.8065 32.8286 92.5403 32.9122 92.4448C32.9957 92.3493 33.2006 91.9659 33.3678 91.5917C33.868 90.4771 34.0615 90.0517 34.5354 89.036C34.7838 88.5048 35.0574 87.8645 35.1444 87.6142C35.2325 87.364 35.3939 87.0057 35.5049 86.8181C35.616 86.6304 35.7064 86.4063 35.7076 86.3199C35.7076 86.1095 35.2646 85.7375 35.0127 85.7375C34.9017 85.7375 34.7941 85.6966 34.7723 85.6454C34.7517 85.5953 34.2961 85.3565 33.7615 85.1165C33.227 84.8765 32.0662 84.3328 31.1825 83.9097C30.2988 83.4866 29.3464 83.051 29.0648 82.9418C28.7832 82.8337 28.5016 82.7052 28.4386 82.6574C28.2005 82.4789 21.8073 79.4818 21.6642 79.4818C21.5807 79.4818 21.5131 79.434 21.5131 79.376C21.5131 79.3169 21.3975 79.2373 21.2556 79.1986C21.1136 79.1588 20.5859 78.9256 20.0822 78.6811C17.9668 77.6506 17.2422 77.3207 17.098 77.3207C17.0133 77.3207 16.6722 77.1604 16.3379 76.9636C15.7736 76.6303 11.1318 74.3635 11.0161 74.3635C10.9864 74.3635 10.0271 73.9017 8.88354 73.3364C6.63304 72.2252 5.86265 72.0056 4.70763 72.1467C3.39808 72.3059 1.83899 73.3557 1.32043 74.4272C1.20138 74.674 1.06058 74.9618 1.00907 75.0675C0.957561 75.1733 0.86255 75.5873 0.798446 75.9877C0.559202 77.472 0.986176 79.0439 1.89393 80.0175C2.47545 80.6431 2.67234 80.7557 5.31548 81.9795C6.92151 82.7234 11.7533 84.8549 12.8133 85.2871C13.159 85.4281 13.9741 85.7921 14.6243 86.0958C15.2733 86.3995 15.8285 86.6474 15.856 86.6474C15.8972 86.6474 17.9645 87.5301 19.052 88.0123C19.5774 88.2455 20.3535 88.5765 20.998 88.8415C21.3758 88.9973 22.8696 89.6343 24.3177 90.2564C25.7657 90.8797 27.6465 91.6816 28.4959 92.041C29.3453 92.3993 30.4797 92.8918 31.0142 93.1352ZM37.0709 86.9489C37.6478 87.2548 37.8539 87.2764 38.1721 87.0683C38.2958 86.9864 38.7628 86.7805 39.2092 86.6099C39.6557 86.4393 40.1937 86.1731 40.4054 86.0185C40.6161 85.8638 40.8782 85.7375 40.9893 85.7375C41.0991 85.7375 41.2205 85.6863 41.2594 85.6238C41.2983 85.5612 41.4174 85.51 41.5238 85.51C41.6303 85.51 42.3721 85.2075 43.1734 84.839C43.9735 84.4693 44.7851 84.0985 44.9763 84.0144C45.1663 83.9313 45.3231 83.8233 45.3231 83.7766C45.3231 83.7289 45.3975 83.6902 45.4903 83.6902C45.6826 83.6902 47.0951 83.0817 49.9592 81.7657C50.337 81.5917 50.8784 81.3551 51.1612 81.2402C51.7003 81.0219 52.766 80.3337 52.8977 80.1187C52.94 80.0505 53.1335 79.8185 53.327 79.6035C53.5204 79.3885 53.6795 79.1622 53.6795 79.0996C53.6795 79.0359 53.7951 78.7516 53.9371 78.4661C54.1523 78.0316 54.1946 77.7586 54.1946 76.8078C54.1946 75.6795 54.1901 75.659 53.6704 74.6467C53.264 73.8539 53.0202 73.5264 52.5829 73.1874C51.4038 72.2741 50.0554 71.9146 48.8019 72.1819C48.4894 72.249 46.9028 72.9463 45.2762 73.7311C43.6507 74.517 42.3045 75.1597 42.2851 75.1597C42.2645 75.1597 41.0476 75.742 39.579 76.4552C38.1103 77.1672 36.2398 78.0657 35.4214 78.4513C34.6029 78.8369 32.6809 79.7514 31.1493 80.4827L28.3654 81.8123L29.0316 82.1126C29.3979 82.2787 30.8048 82.9338 32.159 83.5685C33.5131 84.2043 35.0997 84.9356 35.687 85.1938C36.6325 85.6101 36.7458 85.6898 36.6771 85.899C36.4825 86.4928 36.5501 86.6736 37.0709 86.9489ZM28.5451 18.8707C29.4048 19.2585 30.3663 19.0515 31.155 18.3088C31.6862 17.8083 31.859 17.3147 31.7594 16.5902C31.6885 16.0818 31.7045 16.0294 31.9403 15.9544C32.2917 15.844 32.5024 16.1511 32.5024 16.7778C32.5024 17.251 32.5138 17.2669 32.8172 17.2157C33.3632 17.1225 34.0214 17.1191 34.849 17.2055C35.6297 17.2863 35.6652 17.2783 36.2227 16.9075C36.5375 16.6982 36.7996 16.4753 36.8042 16.4127C36.8099 16.3502 36.8752 16.1523 36.9496 15.9726C37.056 15.7189 37.0549 15.554 36.945 15.2333C36.7607 14.6907 36.6668 14.5747 36.2501 14.3677C35.8323 14.1607 35.4843 14.1504 34.8902 14.3267C34.3602 14.4848 33.876 14.3211 33.876 13.9844C33.876 13.8206 33.9825 13.7558 34.3305 13.7091C34.8341 13.642 35.4626 13.2144 35.4717 12.9323C35.482 12.657 35.8712 12.3579 36.1048 12.4466C36.2696 12.5092 36.2937 12.6115 36.2387 13.0153C36.1815 13.4248 36.2067 13.526 36.3898 13.6238C36.7344 13.8069 36.8042 13.7694 37.0228 13.2872C37.3388 12.5922 37.8482 12.3295 38.2751 12.64C38.5636 12.8493 38.4102 13.2724 37.9924 13.4168C37.5093 13.584 37.372 14.097 37.5883 14.9205C37.681 15.2765 37.7383 15.6302 37.7154 15.7064C37.6913 15.7815 37.6421 16.0613 37.6043 16.3274L37.5368 16.8108H38.0565C38.7468 16.8108 39.239 16.5925 39.7518 16.0579C40.2406 15.5472 40.4489 14.925 40.3413 14.2926L40.2647 13.8468L39.8308 14.2369C39.3065 14.7066 38.9631 14.8329 38.7296 14.6407C38.48 14.4348 38.5751 14.031 38.8841 13.9878C39.2081 13.9423 39.714 13.2974 39.714 12.93C39.714 12.7776 39.6374 12.5456 39.5446 12.4125C39.334 12.1134 38.5361 11.6925 38.1801 11.6925C38.0153 11.6925 37.7795 11.539 37.5689 11.2944C37.3811 11.0749 37.1682 10.8963 37.0972 10.8963C36.8317 10.8963 36.9713 10.3788 37.3113 10.1001C37.5597 9.89542 37.6822 9.67248 37.744 9.3051C37.8379 8.75801 38.0863 8.59195 38.4114 8.86038C38.6289 9.04009 38.5373 9.65201 38.2145 10.1729C37.9329 10.6279 38.029 10.8645 38.5522 11.0089C38.7822 11.0715 39.1818 11.2444 39.4393 11.3911L39.9086 11.6595L40.0517 11.266C40.2589 10.6984 40.1135 9.75893 39.7346 9.21525C39.1669 8.39745 39.0856 8.31897 38.598 8.10742C38.3301 7.99026 38.1115 7.85378 38.1115 7.80373C38.1115 7.75255 37.8791 7.7116 37.5963 7.7116C37.0835 7.7116 37.0812 7.71274 37.0812 8.1131C37.0812 8.5601 36.8351 9.23117 36.6245 9.36084C36.5489 9.40633 36.4058 9.36425 36.3062 9.26529C36.1528 9.11288 36.1471 9.01734 36.2639 8.62835C36.3463 8.35765 36.3726 7.94249 36.328 7.61492L36.2547 7.05987L36.8969 7.00641C37.2495 6.97684 37.57 6.92338 37.6066 6.88584C37.7715 6.72206 37.4819 6.07601 37.0377 5.61536C36.573 5.1331 36.3921 5.05576 35.4901 4.95567C35.2588 4.92951 35.1833 4.81463 35.0219 4.24252C34.7906 3.42017 34.3969 2.74228 34.0969 2.64788C33.9756 2.6092 33.876 2.53072 33.876 2.47158C33.876 2.41357 33.773 2.3658 33.6471 2.3658C33.5212 2.3658 33.4181 2.32144 33.4181 2.26571C33.4181 2.13149 32.8687 2.12922 32.4383 2.26116C32.1853 2.33964 32.0193 2.51025 31.8396 2.87877C31.5683 3.43269 31.4687 3.48387 31.194 3.21089C30.957 2.97545 30.965 2.89469 31.2901 2.25206L31.5648 1.70724L31.3187 1.35579C31.1825 1.16243 30.9856 1.00433 30.8803 1.00319C30.7761 1.00205 30.6697 0.940633 30.6456 0.867839C30.617 0.783671 30.3228 0.732488 29.8627 0.729075C28.9354 0.724526 28.1948 1.03845 27.7392 1.63217C27.4519 2.00638 27.4027 2.18154 27.3672 2.95384L27.3649 3.02094C27.3432 3.48501 27.3328 3.7159 27.437 3.79324C27.5412 3.87059 27.7587 3.79552 28.1937 3.64652L28.2555 3.62491C28.9297 3.39401 29.0007 3.31553 29.1163 2.67745C29.2148 2.13149 29.6726 1.78004 29.9405 2.04619C30.0927 2.19746 30.0905 2.26116 29.9176 2.62058C29.6658 3.14606 29.7699 3.53619 30.2416 3.82964C30.4465 3.95703 30.7578 4.24252 30.933 4.46431C31.2707 4.8897 31.55 4.98069 31.6587 4.69975C31.7869 4.36763 32.4497 4.07191 33.0667 4.07191C33.6494 4.07191 33.662 4.07873 33.6265 4.38469C33.5933 4.66449 33.5349 4.70317 33.0759 4.75435C32.4154 4.82714 32.373 5.03301 32.8881 5.64607C33.1056 5.9054 33.3048 6.17952 33.33 6.25459C33.3655 6.36036 33.4582 6.35809 33.7352 6.24435C34.1633 6.06805 35.1707 6.17155 35.3722 6.41382C35.6011 6.68794 35.2932 6.91542 34.6922 6.91542C33.7467 6.91542 33.2716 7.2828 32.998 8.22343C32.9339 8.44181 32.8126 8.57716 32.658 8.59877C32.3467 8.64313 32.2654 8.34058 32.4131 7.6934C32.476 7.42156 32.5344 6.99731 32.5436 6.75049C32.5573 6.36491 32.5081 6.2671 32.199 6.05895C32.001 5.92588 31.5523 5.72683 31.2031 5.61764C30.8105 5.4948 30.5415 5.34011 30.5003 5.21386C30.2599 4.4609 29.0797 4.02641 28.2761 4.39607C27.7736 4.62696 27.2894 5.17405 27.3088 5.48797C27.3168 5.6165 27.3306 6.25117 27.3374 6.90063C27.3512 8.06988 27.3535 8.07898 27.6087 7.99254C27.7507 7.94477 28.0975 7.90041 28.3791 7.89472C28.7798 7.88449 28.9 7.92543 28.9309 8.07898C28.9595 8.22343 28.805 8.34855 28.3562 8.54532C27.4004 8.96502 27.3512 9.0981 27.3512 11.233C27.3512 12.3135 27.3958 13.0574 27.4599 13.0574C27.7713 13.0574 28.196 12.7367 28.3928 12.3522C28.6401 11.8711 28.8816 11.8006 29.0717 12.1543C29.3029 12.582 28.8771 13.1711 28.0311 13.5943C27.31 13.9548 27.2997 13.9673 27.3317 14.3904C27.35 14.627 27.3878 14.9023 27.4176 15.0024C27.5103 15.322 28.3368 15.8907 28.7786 15.9396C29.2743 15.993 29.4471 16.1318 29.3453 16.3945C29.2216 16.7142 28.75 16.7494 28.109 16.4855C27.7839 16.3513 27.4805 16.2421 27.4347 16.2421C27.3889 16.2421 27.3512 16.589 27.3512 17.0122C27.3512 17.7105 27.3855 17.8243 27.7152 18.2212C27.9155 18.4623 28.2887 18.7547 28.5451 18.8707ZM23.5965 18.865C24.1941 19.1425 24.9507 19.1107 25.5917 18.7808C26.2225 18.4567 26.6861 17.5399 26.6185 16.754C26.5922 16.4412 26.5659 16.1716 26.5602 16.1545C26.5544 16.1375 26.3564 16.2205 26.1206 16.3399C25.5162 16.6436 25.0022 16.7346 24.7252 16.5868C24.4333 16.4321 24.4081 16.0147 24.6897 16.0135C25.1636 16.0124 25.7657 15.7519 26.1492 15.3823C26.5316 15.0126 26.559 14.9409 26.527 14.395L26.4926 13.8069L26.0061 13.6875C25.3891 13.5374 24.9415 13.0642 24.8626 12.4807C24.8065 12.0588 24.8191 12.0337 25.1041 12.0337C25.2701 12.0337 25.4052 12.0815 25.4052 12.1384C25.4052 12.3545 25.9855 12.9186 26.2625 12.971L26.5499 13.0256L26.5464 11.1932C26.5419 9.10151 26.5109 9.02075 25.5849 8.61356C25.0331 8.37129 24.9221 8.13471 25.2724 7.94932C25.5105 7.82193 25.9123 7.89813 26.2912 8.1404C26.519 8.28599 26.5556 8.28371 26.6197 8.11765C26.6598 8.01529 26.6655 7.2919 26.6323 6.5105C26.5957 5.64039 26.6037 5.31281 26.4617 5.07282C26.3507 4.88401 26.1469 4.74866 25.7554 4.44497C25.5116 4.25617 24.6806 4.26413 24.2066 4.4609C23.9479 4.56895 23.7362 4.77937 23.5782 5.08647C23.379 5.47433 23.2829 5.55053 22.9955 5.55053C22.2583 5.55053 21.2636 6.21478 21.2579 6.71182C21.2556 6.85513 21.3609 7.23389 21.4914 7.5535C21.7054 8.07784 21.7123 8.1586 21.5578 8.37812C21.3151 8.72161 21.2064 8.68522 20.9408 8.16656C20.8126 7.91633 20.7382 7.7116 20.7759 7.7116C20.8126 7.7116 20.6729 7.5717 20.4634 7.40109C20.254 7.22934 20.0559 7.05645 20.025 7.01437C19.9941 6.97342 19.6988 6.94158 19.3714 6.94499C18.7441 6.95068 18.3949 6.77893 18.4968 6.51505C18.5827 6.29098 19.2947 6.08397 19.6587 6.1761C19.8293 6.21933 20.0559 6.27165 20.1635 6.29326C20.2791 6.316 20.6122 6.08397 20.9877 5.71659C21.5521 5.16495 21.599 5.08306 21.4422 4.92723C21.346 4.83283 21.0976 4.75435 20.8893 4.75435C20.4737 4.75435 20.191 4.51208 20.2952 4.24365C20.3432 4.11968 20.5344 4.07191 20.9911 4.07191C21.5578 4.07191 21.6597 4.11172 22.0202 4.47C22.2412 4.68952 22.4621 4.86695 22.5113 4.86468C22.6453 4.85899 23.0413 4.48933 23.1844 4.23683C23.2897 4.0503 23.5942 3.83533 23.9388 3.70452C24.1093 3.63856 24.1277 2.9982 23.9697 2.62285C23.7751 2.15993 23.8289 2.02458 24.2078 2.02458C24.526 2.02458 24.7721 2.35101 24.8923 2.9345C24.9999 3.45771 25.1407 3.61581 25.5047 3.62149C25.6707 3.62263 25.934 3.6977 26.092 3.78756C26.25 3.87741 26.4217 3.95248 26.4743 3.95362C26.6071 3.9593 26.4915 2.5694 26.3347 2.27708C26.2637 2.14628 26.2065 1.94382 26.2065 1.82553C26.2065 1.59237 25.744 1.11466 25.2907 0.88035C25.1327 0.799595 24.6954 0.733625 24.3177 0.733625C23.5439 0.734763 22.778 1.05324 22.4861 1.49682C22.3236 1.7425 22.3328 1.80165 22.6109 2.29528C22.8147 2.65811 22.8879 2.9163 22.8387 3.10852C22.7357 3.51913 22.4037 3.45885 22.145 2.98114C21.6574 2.08031 20.9957 1.91539 20.1109 2.47385C19.4252 2.90607 19.0245 3.51572 18.9101 4.30052C18.8208 4.92155 18.8173 4.92496 18.364 4.99434C17.4174 5.13765 16.6355 5.68247 16.3688 6.38311C16.1467 6.9666 16.1948 7.02916 16.8542 7.02916C17.6463 7.02916 17.7447 7.13949 17.66 7.93908C17.6177 8.34627 17.6429 8.67612 17.7287 8.83763C17.9096 9.17203 17.6967 9.45638 17.3475 9.34832C17.0144 9.24482 16.9515 9.11743 16.8656 8.36561C16.7912 7.72525 16.7832 7.7116 16.4329 7.71274C15.9796 7.71387 15.0043 8.16656 14.6918 8.52143C14.1538 9.13108 13.926 9.66111 13.8745 10.4243C13.839 10.9532 13.8699 11.2421 13.9786 11.3854C14.1275 11.5799 14.1664 11.5765 14.8189 11.2933C15.1955 11.1295 15.5801 10.9555 15.6751 10.9054C15.9258 10.7735 15.9521 10.455 15.7335 10.215C15.6179 10.0888 15.5343 9.78623 15.5229 9.45524C15.5057 8.96502 15.5309 8.90246 15.761 8.86948C16.0197 8.83308 16.0597 8.88654 16.1753 9.41884C16.2097 9.57467 16.4146 9.88063 16.6298 10.0979C16.8656 10.3356 16.9961 10.5619 16.9572 10.6666C16.8553 10.9418 16.062 11.6925 15.8731 11.6925C15.5492 11.6925 14.7674 12.1065 14.5338 12.4011C14.0863 12.9675 14.3255 13.6193 15.1268 14.014C15.4416 14.1698 15.54 14.6213 15.2825 14.7191C14.9734 14.8374 14.5544 14.6634 14.1481 14.2471C13.7096 13.799 13.6123 13.8684 13.6169 14.6304C13.6226 15.5517 14.3301 16.4594 15.2275 16.6994C15.8136 16.8563 16.4352 16.7869 16.3745 16.5708C16.212 15.9908 16.2337 15.1718 16.4238 14.7533C16.6172 14.3267 16.6184 14.2778 16.4375 13.9002C16.3322 13.6807 16.0918 13.4134 15.9041 13.3076C15.4336 13.0415 15.4244 12.6024 15.8892 12.6024C16.2795 12.6024 16.758 12.9505 16.9973 13.4089C17.185 13.7694 17.5089 13.8399 17.7356 13.5692C17.8466 13.4362 17.8478 13.3622 17.7413 13.2348C17.6658 13.1438 17.62 12.9516 17.6406 12.8083C17.6921 12.4523 18.3389 12.4227 18.4041 12.773C18.4911 13.2439 19.0429 13.6557 19.6244 13.683C20.0193 13.7023 20.1555 14.0595 19.8602 14.3029C19.7182 14.42 19.5408 14.4189 18.9272 14.2983C18.229 14.1595 18.1385 14.1652 17.7539 14.3711C17.3235 14.6009 16.9492 15.1866 16.94 15.6484C16.9286 16.1671 17.2365 16.6527 17.7505 16.9268C18.1912 17.1623 18.4133 17.1953 19.6244 17.2055C20.3799 17.2123 21.0747 17.2408 21.1674 17.2703C21.2991 17.3102 21.3517 17.1839 21.401 16.7187C21.4605 16.1443 21.6162 15.9066 21.9367 15.9032C22.1759 15.8998 22.2973 16.2569 22.1748 16.6061C21.9023 17.3818 22.5228 18.3668 23.5965 18.865ZM27.1898 47.5492C26.084 49.2223 25.1533 50.5917 25.1213 50.5917C25.0217 50.5917 25.0423 50.4962 25.6913 47.9348C26.037 46.5687 26.3209 45.3278 26.3209 45.1777C26.3209 44.907 26.3118 44.9047 25.1064 44.9047H23.8918L23.9445 44.5351C23.9731 44.3315 24.2112 43.2566 24.4745 42.1454C24.7366 41.0341 24.9828 39.9013 25.0205 39.6283C25.0583 39.3542 25.1247 39.0732 25.1682 39.0039C25.2174 38.9242 25.9558 38.8492 27.1589 38.8014L29.0717 38.7263L28.7717 39.3985C28.0941 40.9204 27.5801 42.2466 27.5801 42.4741C27.5801 42.7914 27.84 42.854 29.1506 42.8562C29.1838 42.8562 29.2159 42.8562 29.2468 42.8562C29.7814 42.8562 30.0527 42.8563 30.1134 42.9689C30.1763 43.0849 30.0149 43.3203 29.6864 43.7969C29.6669 43.8242 29.6486 43.8526 29.628 43.8811C29.3922 44.2245 28.2944 45.8761 27.1898 47.5492ZM29.5044 66.9396C29.2983 67.1865 28.8794 67.1057 28.6641 66.7781C28.5531 66.6109 28.3024 66.2981 28.1078 66.0854C27.9121 65.8728 27.6682 65.4849 27.5664 65.2256C27.3454 64.6637 26.986 64.5363 26.7696 64.9446C26.5728 65.3177 25.7589 66.3277 25.5677 66.4346C25.4807 66.4847 25.3033 66.4688 25.1751 66.4005C24.9473 66.2799 24.9461 66.2674 25.1442 65.9319C25.2563 65.742 25.4956 65.4246 25.6776 65.2267C26.2087 64.6444 26.6517 63.5866 26.7822 62.5857C26.8475 62.0772 26.8933 59.6739 26.8841 57.092C26.8738 53.9107 26.9082 52.465 26.994 52.3797C27.0627 52.3115 27.223 52.2398 27.35 52.2205C27.5698 52.1875 27.5801 52.2467 27.5801 53.607V55.0276H28.4959V50.9694L28.7878 50.8374C28.948 50.7646 29.1003 50.7055 29.1266 50.7055C29.1518 50.7055 29.1907 53.4569 29.2125 56.819C29.2342 60.1812 29.2903 63.0861 29.3372 63.2738C29.5181 63.9881 29.9851 64.8161 30.4888 65.3166L31.0108 65.8364L30.7761 66.0695C30.577 66.2674 30.5129 66.28 30.3572 66.1537C28.6848 64.7877 28.5062 64.1246 28.4924 59.1985L28.4833 55.8238H27.5641L27.611 59.6625C27.6545 63.1817 27.6774 63.5536 27.8926 64.1359C28.2383 65.0686 28.5451 65.5941 29.1152 66.2288C29.4929 66.6496 29.5937 66.8327 29.5044 66.9396ZM25.6639 26.7028C25.6547 30.6223 25.6925 33.7582 25.7474 33.7582C25.8905 33.7582 26.4068 32.6276 26.5476 32.0066C26.7296 31.1967 26.7021 18.9366 26.5178 19.0447C26.4411 19.0891 26.2213 19.2437 26.029 19.3859L25.6799 19.6464L25.6639 26.7028ZM24.2913 32.8971C24.8717 34.1267 24.8866 33.9845 24.9278 26.53L24.9644 19.7681H24.0533L23.9766 20.9339C23.9331 21.5754 23.9159 24.3768 23.9365 27.1612L23.9743 32.2227L24.2913 32.8971ZM22.3785 93.2228C22.4392 93.3581 22.4793 93.4537 22.5502 93.498C22.7128 93.6004 23.039 93.4469 24.1368 92.9271L24.1998 92.8975C24.8305 92.5995 25.5414 92.2765 25.7772 92.1798C26.013 92.0831 26.2065 91.9568 26.2065 91.8977C26.2065 91.7805 25.388 91.4245 25.1167 91.4245C25.024 91.4245 24.9473 91.3734 24.9473 91.3108C24.9473 91.2482 24.8523 91.1971 24.7355 91.1971C24.6187 91.1971 24.2936 91.0754 24.0132 90.9275C23.2829 90.5419 20.9385 89.5694 20.879 89.6274C20.8389 89.6684 21.4788 91.2028 22.3785 93.2228ZM25.0709 64.5898C24.8843 64.8696 24.6119 65.2097 24.4676 65.3439C24.2353 65.56 24.1769 65.5702 23.9869 65.4303C23.8678 65.3439 23.7201 65.2563 23.6583 65.2358C23.5965 65.2153 23.7522 64.9799 24.0029 64.7115C24.2547 64.4442 24.6084 63.9346 24.7893 63.5786L25.119 62.9326L25.1361 58.7242C25.1545 53.9459 25.1361 53.4967 25.3147 53.3977C25.3514 53.3772 25.396 53.3727 25.4509 53.3477C25.602 53.2794 25.7566 53.2533 25.7944 53.2908C25.8321 53.3283 25.863 55.4439 25.863 57.9917C25.863 62.2842 25.8459 62.6778 25.6364 63.3523C25.5128 63.7526 25.2575 64.3088 25.0709 64.5898ZM26.1904 80.7614C26.78 81.0582 27.3718 81.3005 27.5068 81.2982C27.6419 81.2971 28.3184 81.023 29.011 80.6886L30.2702 80.0824L29.6406 79.8844C28.6813 79.583 26.8956 79.5364 25.9397 79.7878C25.5105 79.9015 25.1499 80.0448 25.1384 80.1074C25.1281 80.1699 25.6009 80.4645 26.1904 80.7614ZM35.9147 10.9293C36.1986 11.3558 36.2009 11.3672 35.9846 11.5663C35.6812 11.8449 35.4614 11.7608 35.1386 11.2432C34.9063 10.8702 34.7861 10.7906 34.3602 10.7269C33.6528 10.6222 33.0289 10.7519 32.7302 11.0681C32.5184 11.2921 32.4406 11.3149 32.2608 11.2034C32.1418 11.1295 32.0445 10.9555 32.0445 10.8156C32.0445 10.6131 32.2059 10.4869 32.8435 10.1889C33.5681 9.85106 33.6494 9.77826 33.7123 9.41771C33.8932 8.37016 34.224 7.95387 34.6166 8.27803C34.7506 8.38722 34.7483 8.46911 34.6052 8.81033C34.3511 9.41316 34.485 9.77826 35.0986 10.1638C35.3882 10.3458 35.7556 10.6905 35.9147 10.9293ZM18.6239 11.4286C18.3801 11.8404 18.3469 11.8552 18.0504 11.6834C17.8054 11.5412 17.786 11.0271 18.0218 10.9373C18.1168 10.902 18.1935 10.8042 18.1935 10.72C18.1935 10.637 18.4476 10.4266 18.759 10.2526C19.3989 9.89542 19.4652 9.75551 19.3302 9.05829C19.1882 8.32921 19.1985 8.2803 19.4962 8.2803C19.8854 8.2803 20.0456 8.53281 20.1257 9.27212C20.1956 9.91248 20.2013 9.92044 20.6294 10.0092C21.5841 10.2059 22.0992 10.753 21.7375 11.1864C21.6093 11.3388 21.5658 11.3342 21.3529 11.142C20.9683 10.794 20.6454 10.6688 20.136 10.6688C19.495 10.6688 18.8963 10.9691 18.6239 11.4286ZM20.5974 41.1877C20.5974 41.2161 20.4818 41.3139 20.3398 41.4072C20.096 41.5653 20.0525 41.546 19.5385 41.0432C19.2397 40.7498 18.9948 40.4541 18.9948 40.3847C18.9948 40.3153 18.8574 40.1504 18.6891 40.0196L18.3835 39.7807L18.0687 40.0798C17.7573 40.3767 17.7516 40.3778 17.462 40.1686C17.3017 40.0525 17.169 39.9206 17.1667 39.8751C17.1644 39.8308 17.0213 39.6431 16.8484 39.4588C16.8027 39.4099 16.7592 39.3633 16.7168 39.3189C15.9922 38.5466 15.8148 38.3578 15.856 38.2498C15.8709 38.2077 15.9189 38.1781 15.9796 38.1326C16.0952 38.045 16.2486 37.9722 16.3196 37.97C16.3906 37.9677 16.7431 38.2998 17.1026 38.707L17.7573 39.4486L17.984 39.162C18.1088 39.005 18.2656 38.8765 18.3331 38.8765C18.5724 38.8765 20.5974 40.9431 20.5974 41.1877ZM37.578 46.7439C37.3708 46.9725 37.1957 47.0157 37.1957 46.8383C37.1957 46.7757 37.1224 46.7246 37.0331 46.7246C36.9438 46.7246 36.6989 46.5289 36.4894 46.2889C35.9777 45.7043 35.7556 45.6361 35.521 45.9921C35.2966 46.331 35.0654 46.2878 34.5354 45.8067C34.3339 45.6236 34.1153 45.4711 34.0512 45.4689C33.9859 45.4666 33.6803 45.2437 33.3712 44.973C32.7702 44.4463 32.713 44.1085 33.2258 44.1085C33.4971 44.1085 34.2503 44.5828 34.548 44.9422C34.7609 45.1993 35.102 45.1811 35.276 44.9047C35.5233 44.5123 35.8209 44.6488 36.8088 45.6065C37.7154 46.4868 37.7577 46.5483 37.578 46.7439ZM31.2878 9.25847C31.1573 9.53031 31.0257 9.64519 30.8425 9.64519C30.5896 9.64519 30.3801 9.28918 30.5403 9.12994C30.5804 9.09013 30.6182 9.02303 30.6239 8.98208C30.6285 8.94 30.6731 8.81602 30.7223 8.70569C30.7704 8.5965 30.7761 8.32466 30.7349 8.10287C30.6537 7.67293 30.2851 7.37493 29.5261 7.1247C29.0762 6.97684 28.9057 6.80509 28.6527 6.24549C28.4203 5.73024 28.5268 5.32305 28.8942 5.32305C29.1243 5.32305 29.1964 5.40494 29.2983 5.78029C29.4105 6.1943 29.4941 6.27165 30.1889 6.60491C31.1413 7.06101 31.4721 7.50004 31.4721 8.30874C31.4721 8.61811 31.3886 9.04578 31.2878 9.25847ZM23.3882 9.30397C23.3985 9.51325 23.3378 9.59742 23.1581 9.62244C22.7803 9.6759 22.3762 8.77507 22.4713 8.09149C22.572 7.36128 22.9108 6.95977 23.7808 6.54007C24.4104 6.23639 24.5581 6.11127 24.6645 5.78484C24.8076 5.34466 24.9896 5.23547 25.2369 5.4402C25.4715 5.63356 25.4452 6.109 25.1762 6.5469C24.9587 6.9029 24.6061 7.11219 23.8598 7.33057C23.6366 7.39654 23.4363 7.57966 23.2886 7.8515C23.086 8.22684 23.078 8.30987 23.2176 8.64541C23.3035 8.85128 23.3802 9.147 23.3882 9.30397ZM23.8003 13.4589C23.6057 13.6909 23.4363 13.6659 23.1993 13.3702C22.7013 12.7514 22.6785 11.6664 23.1478 10.8554C23.347 10.5108 23.5461 10.3572 24.0658 10.1502C24.8065 9.85333 25.0617 9.88518 25.0617 10.273C25.0617 10.48 24.9519 10.5779 24.5409 10.7337C23.5771 11.0999 23.252 11.8768 23.6881 12.7719C23.8907 13.1893 23.9125 13.3236 23.8003 13.4589ZM30.8139 13.269C30.5827 13.5772 30.3205 13.6955 30.1786 13.5544C30.0458 13.4214 30.095 13.0142 30.2736 12.7799C30.4923 12.4921 30.4877 11.9848 30.2599 11.4753C30.1237 11.1704 29.9336 11.001 29.5101 10.8065C28.8988 10.5255 28.7351 10.3049 28.948 10.0501C29.0648 9.91134 29.1587 9.9102 29.62 10.0456C30.2667 10.2355 30.9719 10.9566 31.0829 11.5401C31.1928 12.127 31.0692 12.93 30.8139 13.269ZM34.6476 40.9238C33.8142 41.3924 33.0804 41.7905 33.0175 41.8076C32.9545 41.8246 32.832 41.7268 32.7462 41.5892C32.6088 41.3685 32.6157 41.3208 32.8034 41.1854C32.9213 41.1024 33.0953 40.9682 33.1915 40.8885C33.2865 40.8089 33.9207 40.4643 34.6018 40.1231C35.7991 39.5214 35.8426 39.5089 36.0018 39.7227C36.0922 39.8444 36.1654 39.9718 36.1643 40.0071C36.1643 40.0423 35.482 40.4552 34.6476 40.9238ZM20.2631 43.0849C20.2059 43.0849 20.0891 43.0997 20.0056 43.1179C19.922 43.1349 19.1573 43.1224 18.3079 43.0894L16.7626 43.028V42.7436C16.7626 42.4638 16.782 42.4582 17.8501 42.4024C18.4487 42.3717 19.2592 42.3638 19.653 42.3876C20.3558 42.4286 20.3684 42.4354 20.3684 42.7573C20.3684 42.937 20.3215 43.0849 20.2631 43.0849ZM27.9704 70.2597C27.6534 70.6351 27.3271 70.6885 26.749 70.4622C26.527 70.3746 26.4526 70.2802 26.4972 70.1426C26.5316 70.0345 26.5098 69.9162 26.4491 69.8798C26.3003 69.7877 26.6243 69.161 26.8944 69.0165C27.2562 68.8243 27.6923 68.8914 27.9865 69.1826C28.3448 69.5397 28.3413 69.823 27.9704 70.2597ZM19.7789 45.437C19.4424 45.6759 18.846 46.1115 18.4545 46.4049L17.7413 46.9384L17.5089 46.6449L17.2777 46.3515L17.9932 45.8294C18.3869 45.5428 18.7349 45.2812 18.7658 45.2471C18.8917 45.114 19.7972 44.5635 19.8899 44.5635C19.9449 44.5635 20.08 44.6624 20.1899 44.783C20.3833 44.9957 20.3696 45.0173 19.7789 45.437ZM21.9252 13.8911C21.8829 14.1118 21.7604 14.4007 21.6528 14.5326C21.4834 14.7408 21.4273 14.7533 21.2487 14.6236C21.0713 14.4939 21.0587 14.4029 21.1548 13.9787C21.2155 13.7069 21.2361 13.4009 21.2006 13.2997C21.1079 13.0392 20.5791 12.6115 20.3444 12.607C20.2356 12.6047 20.0948 12.5058 20.0319 12.3875C19.8602 12.0701 20.1486 11.8745 20.65 11.9689C21.5005 12.127 22.0901 13.0165 21.9252 13.8911ZM35.2977 16.6607C35.0242 16.8597 34.825 16.8472 34.2767 16.5959C33.3815 16.1864 32.9786 15.5574 33.093 14.7499C33.1217 14.5474 33.2041 14.4792 33.4158 14.4792C33.6574 14.4792 33.7112 14.5463 33.7719 14.9148C33.8669 15.4949 34.2778 15.8838 34.9097 15.9908C35.4786 16.0874 35.6583 16.3991 35.2977 16.6607ZM19.6289 16.597C19.0669 16.8506 18.8757 16.8597 18.5873 16.647C18.2702 16.4127 18.4991 16.0909 19.0451 16.0021C19.6118 15.9111 19.9369 15.5654 20.017 14.9682C20.0697 14.577 20.1326 14.4723 20.3318 14.4439C20.6638 14.3973 20.8687 14.7863 20.7748 15.2844C20.6798 15.7906 20.2002 16.3388 19.6289 16.597ZM32.7485 14.2972C32.8023 14.6623 32.6077 14.7078 32.2356 14.4166C31.9918 14.2267 31.93 14.0822 31.93 13.7034C31.93 12.7685 32.5676 12.0167 33.3792 11.9905C33.773 11.978 33.8188 12.0064 33.8188 12.2544C33.8188 12.4682 33.7387 12.5513 33.4662 12.6218C32.7863 12.7969 32.5962 13.2405 32.7485 14.2972ZM15.8308 92.9316C16.0483 93.4218 16.1788 93.5856 16.3551 93.5856C16.7683 93.5856 16.6905 93.2979 15.7083 91.1686C15.4988 90.7148 15.3409 90.5146 15.1932 90.5146C14.8372 90.5146 14.8383 90.8069 15.1978 91.5599C15.3866 91.9546 15.6717 92.5722 15.8308 92.9316ZM18.5529 92.2492C18.6113 92.3584 18.7315 92.4482 18.8196 92.4482C19.0257 92.4482 19.163 92.024 19.0142 91.8454C18.9513 91.7703 18.7406 91.3097 18.546 90.8217C18.3514 90.3338 18.1088 89.8094 18.008 89.6559C17.8111 89.3579 17.3922 89.2748 17.3922 89.533C17.3922 89.6707 18.2667 91.7191 18.5529 92.2492ZM35.3641 42.6299V43.3123H34.0672C33.3529 43.3123 32.7347 43.2782 32.6935 43.2361C32.6512 43.1952 32.6168 43.0416 32.6168 42.8949C32.6168 42.6322 32.6283 42.6299 33.9905 42.6299H35.3641ZM35.9445 92.4016C36.2295 92.7428 36.3097 92.6416 37.0057 91.0754C37.6124 89.7082 37.6581 89.458 37.2884 89.5114C36.9416 89.5615 35.7373 92.1525 35.9445 92.4016ZM38.385 93.4218C38.4961 93.7096 38.8383 93.5606 39.0558 93.1295C40.1136 91.0333 40.2887 90.4555 39.8423 90.5374C39.6019 90.5817 38.29 93.1773 38.385 93.4218ZM37.2094 92.8622C37.3697 93.0544 37.4773 93.0579 37.6284 92.8747C37.7864 92.6825 38.7983 90.385 38.7983 90.2178C38.7983 90.0961 38.4663 89.897 38.3896 89.9721C38.3724 89.9903 38.0702 90.6124 37.7188 91.3563C37.2254 92.3993 37.1087 92.7428 37.2094 92.8622ZM31.3451 15.0626C31.155 15.2901 29.7551 15.2207 29.7551 14.983C29.7551 14.925 29.6795 14.8772 29.5879 14.8772C29.2239 14.8772 29.0224 13.9389 29.3578 13.8115C29.4586 13.7728 29.6166 13.8445 29.7299 13.9787C30.0161 14.3188 30.4877 14.536 30.9387 14.536C31.3703 14.536 31.5694 14.7942 31.3451 15.0626ZM24.3314 14.751C24.0052 15.0638 23.8335 15.1343 23.2554 15.1855C22.6224 15.2424 22.5617 15.2287 22.4896 15.0001C22.3751 14.6418 22.5937 14.453 23.1226 14.453C23.4672 14.453 23.6663 14.3768 23.901 14.1539C24.0739 13.9889 24.3291 13.8536 24.4665 13.8536C24.8568 13.8536 24.787 14.312 24.3314 14.751ZM16.7706 91.6384C17.3922 92.9453 17.6532 93.2489 17.8089 92.8452C17.9107 92.5824 16.7855 90.1245 16.5405 90.0779C16.0769 89.988 16.117 90.2678 16.7706 91.6384ZM24.5775 17.6104C24.5958 17.7048 24.5432 17.8732 24.4608 17.9858C24.3188 18.178 24.2776 18.1712 23.6847 17.8641C23.1466 17.5854 23.0539 17.4887 23.023 17.1748C22.9772 16.7085 23.2542 16.5765 23.608 16.895C23.7465 17.0201 24.0132 17.1941 24.2021 17.2806C24.3898 17.367 24.5592 17.516 24.5775 17.6104ZM30.2736 17.8334L30.2473 17.8459C29.8981 18.0131 29.7814 18.0699 29.6932 18.0404C29.6475 18.0244 29.6085 17.9846 29.549 17.9255C29.3201 17.698 29.3899 17.3898 29.6875 17.3147C29.8386 17.2772 30.079 17.1225 30.2221 16.9723C30.5163 16.6607 30.8437 16.6141 30.9421 16.8688C31.0589 17.1714 30.7636 17.5968 30.2736 17.8334Z" fill="#070503"/>
</svg>